:SAMPLES-PER-SECOND 30
:FULLY-SPECIFIED
:DEGREES
243
root  5.798577887 35.69688872 1.071355568 -15.59599304 -52.71499634 -4.102996826
lowerback  5.710780144 0.8107089996 -6.778439999
upperback  3.542850018 0.6964700222 -1.729629993
thorax  0.4047009945 0.233149007 1.976209998
lowerneck  -6.346280098 7.275459766 -5.12514019
upperneck  23.11090088 8.238340378 11.21549988
head  7.349969864 4.439479828 5.171579838
lclavicle  0 -9.442270133e-015 7.951389973e-016
lhumerus  22.50099945 -10.96259975 75.71720123
lradius  1.217960832e-031 -3.314425357e-031 110.177002
lwrist  -7.062250077e-031 1.765562519e-031 13.58310032
lhand  -1.496451383e-031 -27.76390076 20.11240005
lfingers  90 7.125020027 -90
lthumb  89.89689403 5.08795885 91.16245106
rclavicle  0 -9.442270133e-015 7.951389973e-016
rhumerus  4.039790154 16.2852993 -80.96160126
rradius  -1.710629464e-031 3.089108427e-031 118.9759979
rwrist  7.062250077e-031 5.296687558e-031 -39.44549942
rhand  -7.920061211e-032 -33.2840004 9.303460121
rfingers  -90 -7.125020027 -90
rthumb  -92.93752616 -24.25625642 -97.11982154
rfemur  -2.734539986 17.5109005 6.561779976
rtibia  -0 0 69.75830078
rfoot  -0 -8.740209579 6.836919785
rtoes  5.373923086 19.29304026 -105.8922705
lfemur  -12.0788002 -1.76662004 6.905389786
ltibia  -0 0 61.35660172
lfoot  4.556404178e-032 -14.36709976 -1.659250021
ltoes  -4.250644065 -19.5611806 -102.515957
244
root  5.735266678 35.49999928 1.285484457 -15.61799622 -52.33799744 -4.727996826
lowerback  5.86838007 1.053269982 -6.358970165
upperback  3.252079964 1.013450027 -1.882689953
thorax  -0.003899259958 0.4174279869 1.563019991
lowerneck  -6.463230133 7.110720158 -5.219079971
upperneck  22.82929993 8.010569572 11.45370007
head  7.281720161 4.354259968 5.244379997
lclavicle  0 -9.442270133e-015 7.951389973e-016
lhumerus  23.74979973 -12.47659969 76.23880005
lradius  1.148631286e-031 -3.339085235e-031 108.9830017
lwrist  -1.412450015e-030 -0 13.31309986
lhand  -1.496451383e-031 -27.76390076 20.11240005
lfingers  90 7.125020027 -90
lthumb  89.89689403 5.08795885 91.16245106
rclavicle  0 -9.442270133e-015 7.951389973e-016
rhumerus  4.485280037 15.10910034 -80.4477005
rradius  -1.721832521e-031 3.082878007e-031 119.1839981
rwrist  7.062250077e-031 2.648343779e-031 -39.86209869
rhand  -7.920061211e-032 -33.2840004 9.303460121
rfingers  -90 -7.125020027 -90
rthumb  -92.93752616 -24.25625642 -97.11982154
rfemur  -1.276090026 17.53280067 7.014309883
rtibia  -0 0 69.55249786
rfoot  -8.947914532e-032 -9.398070335 6.750030041
rtoes  5.373923086 19.29304026 -105.8922705
lfemur  -11.68570042 -3.276639938 7.278029919
ltibia  -0 0 60.80519867
lfoot  4.580408231e-032 -15.49600029 -1.018139958
ltoes  -4.250644065 -19.5611806 -102.515957
245
root  5.692377616 35.30000101 1.498846651 -15.69299316 -52.01599884 -5.253005981
lowerback  6.166160107 1.272109985 -5.917990208
upperback  2.921099901 1.28918004 -1.993170023
thorax  -0.522536993 0.5812479854 1.177800059
lowerneck  -6.331089973 6.979469776 -5.578440189
upperneck  22.38739967 7.860390186 11.73530006
head  7.094399929 4.283349991 5.35653019
lclavicle  0 -9.442270133e-015 7.951389973e-016
lhumerus  24.81999969 -13.89690018 76.87180328
lradius  1.083378944e-031 -3.360823426e-031 107.8669968
lwrist  0 -1.765562519e-031 12.15859985
lhand  -1.496451383e-031 -27.76390076 20.11240005
lfingers  90 7.125020027 -90
lthumb  89.89689403 5.08795885 91.16245106
rclavicle  0 -9.442270133e-015 7.951389973e-016
rhumerus  4.953040123 14.06659985 -79.89199829
rradius  -1.733710927e-031 3.076213656e-031 119.4049988
rwrist  1.412450015e-030 8.827812596e-032 -40.27399826
rhand  -7.920061211e-032 -33.2840004 9.303460121
rfingers  -90 -7.125020027 -90
rthumb  -92.93752616 -24.25625642 -97.11982154
rfemur  0.05907620117 17.57979965 7.399189949
rtibia  -0 0 69.42559814
rfoot  -8.990929805e-032 -10.93060017 6.929719925
rtoes  5.373923086 19.29304026 -105.8922705
lfemur  -11.41660023 -4.49630022 7.537149906
ltibia  -0 0 60.99990082
lfoot  4.603704956e-032 -16.5095005 -1.183750033
ltoes  -4.250644065 -19.5611806 -102.515957
246
root  5.661466553 35.0935568 1.68122438 -15.64900208 -51.80599976 -5.695999146
lowerback  6.40418005 1.535380006 -5.470379829
upperback  2.597249985 1.630139947 -2.190089941
thorax  -0.9951699972 0.7721740007 0.6917179823
lowerneck  -6.46739006 6.826069832 -5.660359859
upperneck  22.04389954 7.648630142 11.99409962
head  7.010250092 4.207890034 5.433129787
lclavicle  0 -9.442270133e-015 7.951389973e-016
lhumerus  25.90469933 -15.4059 77.19750214
lradius  1.032990526e-031 -3.37665139e-031 107.0100021
lwrist  -7.062250077e-031 -1.765562519e-031 10.93039989
lhand  -1.496451383e-031 -27.76390076 20.11240005
lfingers  90 7.125020027 -90
lthumb  89.89689403 5.08795885 91.16245106
rclavicle  0 -9.442270133e-015 7.951389973e-016
rhumerus  5.445159912 12.85070038 -79.40239716
rradius  -1.749526346e-031 3.067246583e-031 119.6999969
rwrist  7.062250077e-031 4.413906298e-031 -40.62070084
rhand  -7.920061211e-032 -33.2840004 9.303460121
rfingers  -90 -7.125020027 -90
rthumb  -92.93752616 -24.25625642 -97.11982154
rfemur  1.000059962 17.82150078 7.810679913
rtibia  -0 0 69.48539734
rfoot  -0 -12.27810001 6.695340157
rtoes  5.373923086 19.29304026 -105.8922705
lfemur  -11.42380047 -5.109489918 7.799069881
ltibia  -0 0 61.73350143
lfoot  4.625973363e-032 -17.41589928 -1.568570018
ltoes  -4.250644065 -19.5611806 -102.515957
